<svg width="143" height="41" viewBox="0 0 143 41" fill="none" xmlns="http://www.w3.org/2000/svg">
<path d="M22.1528 28.2218V35.708C22.1528 37.6177 20.5964 39.1741 18.6867 39.1741H3.46615C1.55643 39.1741 0 37.6177 0 35.708V20.4779C0 18.5681 1.55643 17.0117 3.46615 17.0117H10.9905C11.4679 17.0117 11.8594 17.4032 11.8594 17.8806C11.8594 18.3581 11.4679 18.7496 10.9905 18.7496H3.46615C2.51129 18.7496 1.73785 19.523 1.73785 20.4779V35.708C1.73785 36.6628 2.51129 37.4363 3.46615 37.4363H18.6962C19.6511 37.4363 20.4245 36.6628 20.4245 35.708V28.2218C20.4245 27.7444 20.816 27.3529 21.2935 27.3529C21.7709 27.3529 22.1528 27.7444 22.1528 28.2218Z" fill="url(#paint0_linear_2122_925)"/>
<path d="M22.1528 28.2218V35.708C22.1528 37.6177 20.5964 39.1741 18.6867 39.1741H3.46615C1.55643 39.1741 0 37.6177 0 35.708V20.4779C0 18.5681 1.55643 17.0117 3.46615 17.0117H10.9905C11.4679 17.0117 11.8594 17.4032 11.8594 17.8806C11.8594 18.3581 11.4679 18.7496 10.9905 18.7496H3.46615C2.51129 18.7496 1.73785 19.523 1.73785 20.4779V35.708C1.73785 36.6628 2.51129 37.4363 3.46615 37.4363H18.6962C19.6511 37.4363 20.4245 36.6628 20.4245 35.708V28.2218C20.4245 27.7444 20.816 27.3529 21.2935 27.3529C21.7709 27.3529 22.1528 27.7444 22.1528 28.2218Z" fill="url(#paint1_linear_2122_925)"/>
<path d="M28.0739 7.57071C28.7805 7.78078 29.5444 7.72349 30.2128 7.40838C30.8812 7.09328 31.3968 6.53946 31.6737 5.85195C31.9507 5.174 31.9602 4.41011 31.6928 3.72261C31.435 3.03511 30.9194 2.47174 30.2605 2.13753C29.6017 1.80333 28.8378 1.73649 28.1312 1.93701C27.4246 2.13753 26.8135 2.59587 26.422 3.21653C26.0305 3.83719 25.8968 4.59153 26.0305 5.30768C26.1737 6.02383 26.5748 6.67314 27.1668 7.11237L25.4385 10.5308C25.7536 10.6549 26.0591 10.8077 26.3551 10.9796L28.0739 7.57071Z" fill="url(#paint2_linear_2122_925)"/>
<path d="M28.0739 7.57071C28.7805 7.78078 29.5444 7.72349 30.2128 7.40838C30.8812 7.09328 31.3968 6.53946 31.6737 5.85195C31.9507 5.174 31.9602 4.41011 31.6928 3.72261C31.435 3.03511 30.9194 2.47174 30.2605 2.13753C29.6017 1.80333 28.8378 1.73649 28.1312 1.93701C27.4246 2.13753 26.8135 2.59587 26.422 3.21653C26.0305 3.83719 25.8968 4.59153 26.0305 5.30768C26.1737 6.02383 26.5748 6.67314 27.1668 7.11237L25.4385 10.5308C25.7536 10.6549 26.0591 10.8077 26.3551 10.9796L28.0739 7.57071Z" fill="url(#paint3_linear_2122_925)"/>
<path d="M39.6743 13.4718C39.426 12.9944 39.0536 12.5933 38.5857 12.3164C38.1274 12.0395 37.5927 11.8867 37.0484 11.8867C36.2654 11.8867 35.5206 12.1923 34.9668 12.7365C34.413 13.2808 34.0979 14.0256 34.0979 14.7895L29.6387 15.5343C29.7055 15.859 29.7533 16.1932 29.7724 16.5369L34.2698 15.7826C34.4512 16.2886 34.7663 16.7374 35.1864 17.0716C35.6066 17.4154 36.1127 17.6255 36.6474 17.7018C37.1821 17.7782 37.7264 17.7018 38.2229 17.4918C38.7194 17.2817 39.1491 16.9379 39.4547 16.4987C39.7698 16.0595 39.9512 15.5438 39.9894 15.0091C40.0371 14.4839 39.9226 13.9492 39.6743 13.4718Z" fill="url(#paint4_linear_2122_925)"/>
<path d="M39.6743 13.4718C39.426 12.9944 39.0536 12.5933 38.5857 12.3164C38.1274 12.0395 37.5927 11.8867 37.0484 11.8867C36.2654 11.8867 35.5206 12.1923 34.9668 12.7365C34.413 13.2808 34.0979 14.0256 34.0979 14.7895L29.6387 15.5343C29.7055 15.859 29.7533 16.1932 29.7724 16.5369L34.2698 15.7826C34.4512 16.2886 34.7663 16.7374 35.1864 17.0716C35.6066 17.4154 36.1127 17.6255 36.6474 17.7018C37.1821 17.7782 37.7264 17.7018 38.2229 17.4918C38.7194 17.2817 39.1491 16.9379 39.4547 16.4987C39.7698 16.0595 39.9512 15.5438 39.9894 15.0091C40.0371 14.4839 39.9226 13.9492 39.6743 13.4718Z" fill="url(#paint5_linear_2122_925)"/>
<path d="M17.3871 21.1953L12.2404 25.7691C11.6579 25.3203 10.9322 25.0912 10.197 25.1484C9.46173 25.2057 8.77423 25.5304 8.26815 26.0651C7.76207 26.5998 7.47562 27.3064 7.46607 28.0321C7.45652 28.7674 7.72388 29.474 8.22041 30.0183C8.71694 30.5625 9.39489 30.9063 10.1301 30.9731C10.8654 31.04 11.6006 30.8394 12.1926 30.4002C12.7847 29.961 13.1857 29.3212 13.3194 28.5955C13.4531 27.8794 13.3098 27.1346 12.9183 26.5139L18.0651 21.9401C17.8263 21.7109 17.5972 21.4627 17.3871 21.1953Z" fill="url(#paint6_linear_2122_925)"/>
<path d="M17.3871 21.1953L12.2404 25.7691C11.6579 25.3203 10.9322 25.0912 10.197 25.1484C9.46173 25.2057 8.77423 25.5304 8.26815 26.0651C7.76207 26.5998 7.47562 27.3064 7.46607 28.0321C7.45652 28.7674 7.72388 29.474 8.22041 30.0183C8.71694 30.5625 9.39489 30.9063 10.1301 30.9731C10.8654 31.04 11.6006 30.8394 12.1926 30.4002C12.7847 29.961 13.1857 29.3212 13.3194 28.5955C13.4531 27.8794 13.3098 27.1346 12.9183 26.5139L18.0651 21.9401C17.8263 21.7109 17.5972 21.4627 17.3871 21.1953Z" fill="url(#paint7_linear_2122_925)"/>
<path d="M12.432 10.9803C12.6325 10.3883 12.6134 9.72944 12.3556 9.15652C12.1074 8.57405 11.649 8.11572 11.0666 7.8579C10.4936 7.60009 9.83478 7.5619 9.23322 7.75287C8.63166 7.94384 8.11603 8.35444 7.80092 8.89871C7.48582 9.44298 7.38078 10.0827 7.50492 10.7034C7.6386 11.3241 7.9919 11.8683 8.50752 12.2312C9.02315 12.6036 9.65336 12.7659 10.2836 12.6991C10.9138 12.6322 11.4962 12.3362 11.9164 11.8588L16.4233 14.456C16.5475 14.1409 16.6907 13.8354 16.8626 13.5393L12.432 10.9803Z" fill="url(#paint8_linear_2122_925)"/>
<path d="M12.432 10.9803C12.6325 10.3883 12.6134 9.72944 12.3556 9.15652C12.1074 8.57405 11.649 8.11572 11.0666 7.8579C10.4936 7.60009 9.83478 7.5619 9.23322 7.75287C8.63166 7.94384 8.11603 8.35444 7.80092 8.89871C7.48582 9.44298 7.38078 10.0827 7.50492 10.7034C7.6386 11.3241 7.9919 11.8683 8.50752 12.2312C9.02315 12.6036 9.65336 12.7659 10.2836 12.6991C10.9138 12.6322 11.4962 12.3362 11.9164 11.8588L16.4233 14.456C16.5475 14.1409 16.6907 13.8354 16.8626 13.5393L12.432 10.9803Z" fill="url(#paint9_linear_2122_925)"/>
<path d="M27.1084 22.4397L31.0138 26.3164C30.4409 27.0612 30.1735 27.997 30.2785 28.9327C30.374 29.8685 30.8228 30.7279 31.539 31.3486C32.2551 31.9692 33.1718 32.2939 34.1171 32.2557C35.0624 32.227 35.96 31.8355 36.6284 31.1671C37.2968 30.4987 37.6883 29.6107 37.7169 28.6749C37.7456 27.7392 37.4209 26.8225 36.8003 26.1159C36.1796 25.4093 35.3107 24.9605 34.3654 24.865C33.42 24.7695 32.4843 25.0274 31.7299 25.6003L27.8627 21.7617C27.6336 22.0004 27.3758 22.2296 27.1084 22.4397Z" fill="url(#paint10_linear_2122_925)"/>
<path d="M27.1084 22.4397L31.0138 26.3164C30.4409 27.0612 30.1735 27.997 30.2785 28.9327C30.374 29.8685 30.8228 30.7279 31.539 31.3486C32.2551 31.9692 33.1718 32.2939 34.1171 32.2557C35.0624 32.227 35.96 31.8355 36.6284 31.1671C37.2968 30.4987 37.6883 29.6107 37.7169 28.6749C37.7456 27.7392 37.4209 26.8225 36.8003 26.1159C36.1796 25.4093 35.3107 24.9605 34.3654 24.865C33.42 24.7695 32.4843 25.0274 31.7299 25.6003L27.8627 21.7617C27.6336 22.0004 27.3758 22.2296 27.1084 22.4397Z" fill="url(#paint11_linear_2122_925)"/>
<path d="M16.9199 19.1602C17.6838 21.1845 19.4694 22.7218 21.656 23.1324C20.9304 22.378 20.3765 20.9553 20.1283 19.1602H16.9199Z" fill="url(#paint12_linear_2122_925)"/>
<path d="M29.1143 16.6628C29.0952 16.319 29.057 15.9848 28.9901 15.6602C28.9615 15.5169 28.9233 15.3737 28.8851 15.2305H28.8087H25.5908C25.6481 15.7843 25.6863 16.3668 25.6863 16.9683C25.6863 17.5699 25.6577 18.1524 25.5908 18.7062H28.8851C29.0379 18.2001 29.1143 17.6463 29.1334 17.0925C29.1238 16.9492 29.1238 16.806 29.1143 16.6628Z" fill="url(#paint13_linear_2122_925)"/>
<path d="M20.9494 10.9805C19.0875 11.5629 17.5979 12.9666 16.9199 14.7713H20.1283C20.3765 13.0143 20.9208 11.6011 21.6179 10.8468C21.6274 10.8372 21.637 10.8181 21.656 10.8086C21.4173 10.8468 21.1786 10.9041 20.9494 10.9805Z" fill="url(#paint14_linear_2122_925)"/>
<path d="M25.5239 19.1602C25.2756 20.9458 24.7122 22.378 23.9961 23.1324C26.1827 22.7218 27.9683 21.194 28.7322 19.1602H25.5239Z" fill="url(#paint15_linear_2122_925)"/>
<path d="M20.5879 19.1602C21.4282 24.5647 24.2164 24.5647 25.0567 19.1602H20.5879Z" fill="url(#paint16_linear_2122_925)"/>
<path d="M26.0395 11.5703C25.753 11.3984 25.4475 11.2457 25.1324 11.1215C24.7695 10.9783 24.3876 10.8637 23.9961 10.7969C24.0438 10.8446 24.082 10.8924 24.1298 10.9401C24.7886 11.7231 25.2947 13.0885 25.5239 14.7596H28.6272H28.7227C28.2166 13.4228 27.2617 12.296 26.0395 11.5703Z" fill="url(#paint17_linear_2122_925)"/>
<path d="M25.1134 18.7062C25.1802 18.1619 25.2089 17.589 25.2089 16.9683C25.2089 16.3477 25.1802 15.7747 25.1134 15.2305H20.5301C20.4632 15.7747 20.4346 16.3477 20.4346 16.9683C20.4346 17.589 20.4632 18.1619 20.5301 18.7062H25.1134Z" fill="url(#paint18_linear_2122_925)"/>
<path d="M19.9754 16.9683C19.9754 16.3668 20.004 15.7843 20.0709 15.2305H16.7766C16.6143 15.7843 16.5283 16.3668 16.5283 16.9683C16.5283 17.5699 16.6143 18.1524 16.7766 18.7062H20.0709C20.004 18.1524 19.9754 17.5699 19.9754 16.9683Z" fill="url(#paint19_linear_2122_925)"/>
<path d="M23.2025 10.7905C22.9733 10.695 22.7441 10.6855 22.5245 10.7619C21.7224 11.0292 20.9681 12.366 20.5957 14.7627H25.0645C24.6921 12.4424 23.9759 11.1152 23.2025 10.7905Z" fill="url(#paint20_linear_2122_925)"/>
<path d="M50.544 10.6H60.016C65.36 10.6 68.224 13.128 68.224 17.416C68.224 21.096 65.664 23.608 61.36 24.024L68.256 33H62.848L56.32 24.088H55.008V33H50.544V10.6ZM59.936 14.712H55.008V20.2H59.936C62.368 20.2 63.632 19.304 63.632 17.416C63.632 15.56 62.304 14.712 59.936 14.712ZM96.5043 28.824V33H80.2003V10.6H84.6643V28.824H96.5043ZM103.399 17.496V33H99.2233V17.496H103.399ZM101.287 9.736C102.791 9.736 103.959 10.92 103.959 12.424C103.959 13.928 102.791 15.08 101.287 15.08C99.7833 15.08 98.6313 13.928 98.6313 12.424C98.6313 10.92 99.7833 9.736 101.287 9.736ZM116.41 17.08C119.93 17.08 122.442 19.528 122.442 23.128V33H118.266V24.472C118.266 22.232 117.146 21 115.242 21C113.45 21 111.962 22.168 111.962 24.504V33H107.786V17.496H111.85V19.32C112.954 17.672 114.65 17.08 116.41 17.08ZM130.868 9.96V23.016H132.34L136.708 17.496H141.828L135.716 24.792L141.876 33H136.74L132.276 26.728H130.868V33H126.692V9.96H130.868Z" fill="white"/>
<defs>
<linearGradient id="paint0_linear_2122_925" x1="-1.84602" y1="23.1327" x2="21.4527" y2="36.3575" gradientUnits="userSpaceOnUse">
<stop stop-color="#00A8FF"/>
<stop offset="1" stop-color="#00DAFF"/>
</linearGradient>
<linearGradient id="paint1_linear_2122_925" x1="-1.84602" y1="23.1327" x2="21.4527" y2="36.3575" gradientUnits="userSpaceOnUse">
<stop stop-color="#00A8FF"/>
<stop offset="1" stop-color="#00DAFF"/>
</linearGradient>
<linearGradient id="paint2_linear_2122_925" x1="29.7389" y1="-2.94013" x2="26.0121" y2="32.505" gradientUnits="userSpaceOnUse">
<stop stop-color="#008CFF"/>
<stop offset="0.0001" stop-color="#008CFF"/>
<stop offset="1" stop-color="#00D9FB"/>
</linearGradient>
<linearGradient id="paint3_linear_2122_925" x1="29.7389" y1="-2.94013" x2="26.0121" y2="32.505" gradientUnits="userSpaceOnUse">
<stop stop-color="#008CFF"/>
<stop offset="0.0001" stop-color="#008CFF"/>
<stop offset="1" stop-color="#00D9FB"/>
</linearGradient>
<linearGradient id="paint4_linear_2122_925" x1="36.6634" y1="-2.21192" x2="32.9366" y2="33.2332" gradientUnits="userSpaceOnUse">
<stop stop-color="#008CFF"/>
<stop offset="0.0001" stop-color="#008CFF"/>
<stop offset="1" stop-color="#00D9FB"/>
</linearGradient>
<linearGradient id="paint5_linear_2122_925" x1="36.6634" y1="-2.21192" x2="32.9366" y2="33.2332" gradientUnits="userSpaceOnUse">
<stop stop-color="#008CFF"/>
<stop offset="0.0001" stop-color="#008CFF"/>
<stop offset="1" stop-color="#00D9FB"/>
</linearGradient>
<linearGradient id="paint6_linear_2122_925" x1="15.8504" y1="-4.40148" x2="12.1237" y2="31.0436" gradientUnits="userSpaceOnUse">
<stop stop-color="#008CFF"/>
<stop offset="0.0001" stop-color="#008CFF"/>
<stop offset="1" stop-color="#00D9FB"/>
</linearGradient>
<linearGradient id="paint7_linear_2122_925" x1="15.8504" y1="-4.40148" x2="12.1237" y2="31.0436" gradientUnits="userSpaceOnUse">
<stop stop-color="#008CFF"/>
<stop offset="0.0001" stop-color="#008CFF"/>
<stop offset="1" stop-color="#00D9FB"/>
</linearGradient>
<linearGradient id="paint8_linear_2122_925" x1="13.8783" y1="-4.60686" x2="10.1515" y2="30.8382" gradientUnits="userSpaceOnUse">
<stop stop-color="#008CFF"/>
<stop offset="0.0001" stop-color="#008CFF"/>
<stop offset="1" stop-color="#00D9FB"/>
</linearGradient>
<linearGradient id="paint9_linear_2122_925" x1="13.8783" y1="-4.60686" x2="10.1515" y2="30.8382" gradientUnits="userSpaceOnUse">
<stop stop-color="#008CFF"/>
<stop offset="0.0001" stop-color="#008CFF"/>
<stop offset="1" stop-color="#00D9FB"/>
</linearGradient>
<linearGradient id="paint10_linear_2122_925" x1="35.36" y1="-2.34727" x2="31.6333" y2="33.0979" gradientUnits="userSpaceOnUse">
<stop stop-color="#008CFF"/>
<stop offset="0.0001" stop-color="#008CFF"/>
<stop offset="1" stop-color="#00D9FB"/>
</linearGradient>
<linearGradient id="paint11_linear_2122_925" x1="35.36" y1="-2.34727" x2="31.6333" y2="33.0979" gradientUnits="userSpaceOnUse">
<stop stop-color="#008CFF"/>
<stop offset="0.0001" stop-color="#008CFF"/>
<stop offset="1" stop-color="#00D9FB"/>
</linearGradient>
<linearGradient id="paint12_linear_2122_925" x1="16.5037" y1="21.1306" x2="29.1078" y2="21.1823" gradientUnits="userSpaceOnUse">
<stop stop-color="#019DFF"/>
<stop offset="1" stop-color="#01D8FC"/>
</linearGradient>
<linearGradient id="paint13_linear_2122_925" x1="16.5198" y1="17.013" x2="29.1265" y2="16.9613" gradientUnits="userSpaceOnUse">
<stop stop-color="#019DFF"/>
<stop offset="1" stop-color="#01D8FC"/>
</linearGradient>
<linearGradient id="paint14_linear_2122_925" x1="16.516" y1="12.8023" x2="29.3041" y2="12.7499" gradientUnits="userSpaceOnUse">
<stop stop-color="#019DFF"/>
<stop offset="1" stop-color="#01D8FC"/>
</linearGradient>
<linearGradient id="paint15_linear_2122_925" x1="16.4364" y1="21.1827" x2="29.1274" y2="21.1307" gradientUnits="userSpaceOnUse">
<stop stop-color="#019DFF"/>
<stop offset="1" stop-color="#01D8FC"/>
</linearGradient>
<linearGradient id="paint16_linear_2122_925" x1="16.5048" y1="21.1612" x2="29.1089" y2="21.2129" gradientUnits="userSpaceOnUse">
<stop stop-color="#019DFF"/>
<stop offset="1" stop-color="#01D8FC"/>
</linearGradient>
<linearGradient id="paint17_linear_2122_925" x1="16.0984" y1="12.8243" x2="29.2433" y2="12.7704" gradientUnits="userSpaceOnUse">
<stop stop-color="#019DFF"/>
<stop offset="1" stop-color="#01D8FC"/>
</linearGradient>
<linearGradient id="paint18_linear_2122_925" x1="16.5216" y1="16.9433" x2="29.1257" y2="16.9949" gradientUnits="userSpaceOnUse">
<stop stop-color="#019DFF"/>
<stop offset="1" stop-color="#01D8FC"/>
</linearGradient>
<linearGradient id="paint19_linear_2122_925" x1="16.5207" y1="16.9613" x2="29.1248" y2="17.013" gradientUnits="userSpaceOnUse">
<stop stop-color="#019DFF"/>
<stop offset="1" stop-color="#01D8FC"/>
</linearGradient>
<linearGradient id="paint20_linear_2122_925" x1="16.5211" y1="12.7733" x2="29.1252" y2="12.7216" gradientUnits="userSpaceOnUse">
<stop stop-color="#019DFF"/>
<stop offset="1" stop-color="#01D8FC"/>
</linearGradient>
</defs>
</svg>
